<svg xmlns="http://www.w3.org/2000/svg" xmlns:xlink="http://www.w3.org/1999/xlink" fill="none" version="1.1" width="312.9350891113281" height="40.29999923706055" viewBox="0 0 312.9350891113281 40.29999923706055"><defs><linearGradient x1="0.5" y1="0.5819513201713562" x2="0.48512680417026566" y2="0.9994789837595534" id="master_svg0_1_90"><stop offset="0%" stop-color="#FFFFFF" stop-opacity="1"/><stop offset="100%" stop-color="#6F579E" stop-opacity="1"/></linearGradient></defs><g><path d="M0,0.723619L20.8458,0.723619Q23.6011,0.723619,25.8276,2.0317Q28.0541,3.33978,29.3761,5.53847Q30.6981,7.73715,30.6981,10.4646L30.6981,13.053Q30.6981,16.9215,28.4716,18.9254Q30.4477,20.2057,31.3383,21.973Q32.2289,23.7403,32.2289,26.3843L32.2289,30.7538Q32.2289,33.37,30.9069,35.5408Q29.5849,37.7117,27.3584,39.0058Q25.1318,40.3,22.4322,40.3L0,40.3L0,0.723619ZM22.4878,34.4276Q24.1021,34.4276,25.2432,33.3282Q26.3843,32.2289,26.3843,30.6703L26.3843,26.3008Q26.3843,24.7422,25.2432,23.6289Q24.1021,22.5157,22.46,22.5157L9.21222,22.5157L9.21222,16.6711L20.8458,16.6711Q22.4878,16.6711,23.6707,15.5996Q24.8535,14.528,24.8535,12.9973L24.8535,10.4646Q24.8535,8.85041,23.6707,7.70932Q22.4878,6.56823,20.8458,6.56823L5.87244,6.56823L5.87244,34.4276L22.4878,34.4276ZM41.3821,3.61809Q41.3821,2.11519,42.4397,1.0576Q43.4973,0,45.0002,0Q46.5031,0,47.5607,1.0576Q48.6183,2.11519,48.6183,3.61809Q48.6183,5.12099,47.5607,6.17859Q46.5031,7.23619,45.0002,7.23619Q43.4973,7.23619,42.4397,6.17859Q41.3821,5.12099,41.3821,3.61809ZM42.05,11.4666L47.9503,11.4666L47.9503,40.3L42.05,40.3L42.05,11.4666ZM57.7715,21.8756Q57.7715,19.0089,59.177,16.6432Q60.5825,14.2776,62.9482,12.8721Q65.3138,11.4666,68.1805,11.4666L74.4704,11.4666Q77.337,11.4666,79.7027,12.8721Q82.0684,14.2776,83.4739,16.6432Q84.8794,19.0089,84.8794,21.8756L84.8794,29.891Q84.8794,32.7577,83.4739,35.1233Q82.0684,37.489,79.7027,38.8945Q77.337,40.3,74.4704,40.3L68.1805,40.3Q65.3138,40.3,62.9482,38.8945Q60.5825,37.489,59.177,35.1233Q57.7715,32.7577,57.7715,29.891L57.7715,21.8756ZM63.6439,29.8354Q63.6439,31.7279,64.9799,33.0777Q66.3158,34.4276,68.1805,34.4276L74.4704,34.4276Q76.3629,34.4276,77.6849,33.0777Q79.0069,31.7279,79.0069,29.8354L79.0069,21.9312Q79.0069,20.0387,77.6849,18.6888Q76.3629,17.339,74.4704,17.339L68.1805,17.339Q66.3158,17.339,64.9799,18.6888Q63.6439,20.0387,63.6439,21.9312L63.6439,29.8354ZM94.7006,17.339Q94.7006,14.9177,96.4261,13.1921Q98.1517,11.4666,100.601,11.4666L109.396,11.4666Q112.958,11.4666,115.24,13.6931Q117.467,11.4666,121.085,11.4666L125.427,11.4666Q128.293,11.4666,130.659,12.8721Q133.025,14.2776,134.43,16.6293Q135.835,18.9811,135.835,21.8477L135.835,40.3L129.991,40.3L129.991,21.9312Q129.991,20.0108,128.655,18.661Q127.319,17.3112,125.427,17.3112L121.085,17.3112Q119.86,17.3112,118.997,18.0766Q118.135,18.8419,118.135,19.9273L118.135,40.3L112.262,40.3L112.262,19.9273Q112.262,18.8419,111.427,18.0766Q110.592,17.3112,109.396,17.3112L100.573,17.3112L100.573,40.3L94.7006,40.3L94.7006,17.339ZM145.935,17.4225Q145.935,14.9455,147.744,13.206Q149.553,11.4666,152.086,11.4666L164.109,11.4666Q166.419,11.4666,168.298,12.5938Q170.176,13.7209,171.303,15.6274Q172.431,17.5338,172.431,19.8439L172.431,20.651Q172.431,22.9331,171.303,24.8118Q170.176,26.6904,168.298,27.8176Q166.419,28.9447,164.109,28.9447L155.147,28.9447L155.147,23.1001L164.165,23.1001Q165.167,23.1001,165.876,22.3765Q166.586,21.6529,166.586,20.6231L166.586,19.8439Q166.586,18.7863,165.876,18.0626Q165.167,17.339,164.165,17.339L151.807,17.339L151.807,32.1454Q151.807,33.0916,152.448,33.7596Q153.088,34.4276,154.006,34.4276L170.399,34.4276L170.399,40.3L154.006,40.3Q151.78,40.3,149.943,39.2007Q148.106,38.1013,147.02,36.2505Q145.935,34.3997,145.935,32.1732L145.935,17.4225ZM181.695,21.8756Q181.695,19.0089,183.101,16.6432Q184.506,14.2776,186.872,12.8721Q189.237,11.4666,192.104,11.4666L198.978,11.4666L198.978,17.339L192.104,17.339Q190.239,17.339,188.903,18.6888Q187.568,20.0387,187.568,21.9312L187.568,29.891Q187.568,31.7557,188.903,33.0916Q190.239,34.4276,192.104,34.4276L202.318,34.4276L202.318,0.723619L208.191,0.723619L208.191,34.4276Q208.191,36.8489,206.465,38.5744Q204.74,40.3,202.318,40.3L192.104,40.3Q189.237,40.3,186.872,38.8945Q184.506,37.489,183.101,35.1373Q181.695,32.7855,181.695,29.9467L181.695,21.8756ZM217.622,3.61809Q217.622,2.11519,218.68,1.0576Q219.737,0,221.24,0Q222.743,0,223.801,1.0576Q224.858,2.11519,224.858,3.61809Q224.858,5.12099,223.801,6.17859Q222.743,7.23619,221.24,7.23619Q219.737,7.23619,218.68,6.17859Q217.622,5.12099,217.622,3.61809ZM218.29,11.4666L224.19,11.4666L224.19,40.3L218.29,40.3L218.29,11.4666ZM234.012,21.8756Q234.012,19.0089,235.459,16.6432Q236.906,14.2776,239.327,12.8721Q241.749,11.4666,244.699,11.4666L260.925,11.4666L260.925,17.339L244.699,17.339Q242.723,17.339,241.303,18.6888Q239.884,20.0387,239.884,21.959L239.884,29.7797Q239.884,31.7001,241.29,33.0638Q242.695,34.4276,244.699,34.4276L260.925,34.4276L260.925,40.3L244.699,40.3Q241.749,40.3,239.327,38.8806Q236.906,37.4612,235.459,35.0816Q234.012,32.702,234.012,29.8354L234.012,21.8756ZM270.468,21.8199Q270.468,18.9532,271.873,16.6154Q273.279,14.2776,275.644,12.8721Q278.01,11.4666,280.876,11.4666L296.963,11.4666L296.963,40.3L291.091,40.3L291.091,17.339L280.876,17.339Q279.012,17.339,277.676,18.661Q276.34,19.983,276.34,21.8756L276.34,29.8354Q276.34,31.7279,277.676,33.0777Q279.012,34.4276,280.876,34.4276L287.751,34.4276L287.751,40.3L280.876,40.3Q278.01,40.3,275.644,38.8945Q273.279,37.489,271.873,35.1233Q270.468,32.7577,270.468,29.891L270.468,21.8199ZM307.063,0.723619L312.935,0.723619L312.935,40.3L307.063,40.3L307.063,0.723619Z" fill="url(#master_svg0_1_90)" fill-opacity="1"/></g></svg>