<svg xmlns="http://www.w3.org/2000/svg" xmlns:xlink="http://www.w3.org/1999/xlink" fill="none" version="1.1" width="179.0754852294922" height="40.697669982910156" viewBox="0 0 179.0754852294922 40.697669982910156"><g><g><path d="M6.03879,0L0,0L0,40.6977L6.03882,40.6977L6.03879,0ZM35.5747,17.9448L23.5257,17.9448L28.1907,23.955L40.3256,40.6977L47.681,40.6977L35.5461,23.955Q38.3795,23.955,40.669,22.6384Q42.9587,21.3219,44.2895,19.0896Q45.6203,16.8572,45.6203,14.081L45.6203,10.017Q45.6203,7.24086,44.2609,4.97988Q42.9014,2.7189,40.6261,1.35945Q38.3508,0,35.5747,0L14.0524,0L14.0524,40.6977L20.0913,40.6977L20.0913,6.0102L35.5747,6.0102Q37.2633,6.0102,38.4367,7.18363Q39.6101,8.35705,39.6101,10.017L39.6101,13.9952Q39.6101,15.6265,38.4367,16.7856Q37.2633,17.9448,35.5747,17.9448ZM74.9272,17.9448L62.8782,17.9448L67.5433,23.955L79.6781,40.6977L87.0335,40.6977L74.8986,23.955Q77.732,23.955,80.0216,22.6384Q82.3112,21.3219,83.642,19.0896Q84.9728,16.8572,84.9728,14.081L84.9728,10.017Q84.9728,7.24086,83.6134,4.97988Q82.2539,2.7189,79.9787,1.35945Q77.7034,0,74.9272,0L53.405,0L53.405,40.6977L59.4438,40.6977L59.4438,6.0102L74.9272,6.0102Q76.6158,6.0102,77.7892,7.18363Q78.9626,8.35705,78.9626,10.017L78.9626,13.9952Q78.9626,15.6265,77.7892,16.7856Q76.6158,17.9448,74.9272,17.9448ZM97.1509,40.6977L92.7575,34.6521L92.7575,0L98.7964,0L98.7963,38.6628L98.7964,40.6977L97.1509,40.6977ZM107.597,4.89402Q106.238,7.12638,106.238,9.84529L106.238,12.8504Q106.238,15.5121,107.597,17.7158Q108.956,19.9195,111.26,21.2217Q113.564,22.524,116.34,22.524L129.305,22.524Q130.994,22.524,132.182,23.6688Q133.369,24.8136,133.369,26.4163L133.369,30.7951Q133.369,32.3979,132.182,33.5284Q130.994,34.6588,129.305,34.6588L106.266,34.6588L110.632,40.6977L129.305,40.6977Q132.11,40.6977,134.4,39.3668Q136.689,38.036,138.049,35.7893Q139.408,33.5427,139.408,30.8238L139.408,26.3877Q139.408,23.6688,138.049,21.4221Q136.689,19.1754,134.4,17.8446Q132.11,16.5138,129.305,16.5138L116.34,16.5138Q114.68,16.5138,113.478,15.4262Q112.276,14.3386,112.276,12.8218L112.276,10.017Q112.276,8.35705,113.478,7.18363Q114.68,6.0102,116.34,6.0102L137.405,6.0102L137.405,0L116.34,0Q113.564,0,111.26,1.33083Q108.956,2.66166,107.597,4.89402ZM147.264,4.89388Q145.905,7.12625,145.905,9.8454L145.905,12.8503Q145.905,15.512,147.264,17.7158Q148.624,19.9195,150.928,21.2218Q153.232,22.524,156.008,22.524L168.973,22.524Q170.661,22.524,171.849,23.6689Q173.037,24.8137,173.037,26.4163L173.037,30.7952Q173.037,32.3979,171.849,33.5285Q170.661,34.6589,168.973,34.6589L145.934,34.6589L145.934,40.6977L168.973,40.6977Q171.777,40.6977,174.067,39.3668Q176.357,38.036,177.716,35.7893Q179.075,33.5426,179.075,30.8239L179.075,26.3876Q179.075,23.6687,177.716,21.4222Q176.357,19.1755,174.067,17.8447Q171.777,16.5139,168.973,16.5138L156.008,16.5138Q154.348,16.5138,153.146,15.4263Q151.944,14.3387,151.944,12.8216L151.944,10.0171Q151.944,8.35718,153.146,7.18369Q154.348,6.01027,156.008,6.01012L177.072,6.01012L177.072,0L156.008,0Q153.232,0,150.928,1.33085Q148.624,2.66168,147.264,4.89388Z" fill-rule="evenodd" fill="#FFFFFF" fill-opacity="1"/></g></g></svg>