<svg xmlns="http://www.w3.org/2000/svg" xmlns:xlink="http://www.w3.org/1999/xlink" fill="none" version="1.1" width="98.83720397949219" height="49.999996185302734" viewBox="0 0 98.83720397949219 49.999996185302734"><defs><clipPath id="master_svg0_1_115/1_066"><rect x="0" y="0" width="98.83720397949219" height="49.999996185302734" rx="0"/></clipPath><linearGradient x1="0.32992345094680786" y1="0.8351837992668152" x2="0.2263714794309047" y2="0.9189847285066424" id="master_svg1_1_046"><stop offset="0%" stop-color="#FFFFFF" stop-opacity="1"/><stop offset="100%" stop-color="#FFFFFF" stop-opacity="0"/></linearGradient><linearGradient x1="0.32992345094680786" y1="0.8351837992668152" x2="0.2263714794309047" y2="0.9189847285066424" id="master_svg2_1_046"><stop offset="0%" stop-color="#FFFFFF" stop-opacity="1"/><stop offset="100%" stop-color="#FFFFFF" stop-opacity="0"/></linearGradient></defs><g clip-path="url(#master_svg0_1_115/1_066)"><g transform="matrix(0.9902680516242981,-0.13917310535907745,0.13917310535907745,0.9902680516242981,-1.0872325415204926,-0.31627587733897045)"><g><path d="M23.541565468429564,40.51548960742188C26.882696468429565,50.035747607421875,35.88546646842956,56.45344760742188,46.031966468429566,56.45344760742188C56.178566468429565,56.45344760742188,65.18136646842956,50.035747607421875,68.52246646842957,40.51548960742188C68.65246646842957,40.144970607421875,68.37156646842956,39.767547607421875,67.97886646842957,39.767547607421875L62.31656646842956,39.767547607421875C62.08766646842957,39.767547607421875,61.88496646842957,39.89331660742187,61.78676646842956,40.100057607421874C58.903266468429564,46.17217760742187,52.775766468429566,50.05814760742187,46.031966468429566,50.05814760742187C39.28826646842957,50.05814760742187,33.16075646842957,46.17217760742187,30.277256468429567,40.100057607421874C30.179076468429564,39.89331660742187,29.976366468429568,39.767547607421875,29.747506468429567,39.767547607421875L24.085105468429564,39.76754760742187C23.692431468429564,39.76754760742187,23.411532468429566,40.144970607421875,23.541565468429564,40.51548960742188" fill-rule="evenodd" fill="#FFFFFF" fill-opacity="1"/></g><g><g><path d="M57.89282428092957,37.761936279296876C58.26922428092956,36.68713627929688,58.314624280929564,36.47333627929687,58.532124280929565,35.694236279296874C62.21312428092956,35.51763627929688,65.84892428092957,35.08313627929687,69.46342428092956,34.360136279296874C72.95172428092957,33.66233627929687,68.59132428092957,33.48803627929688,65.97502428092957,31.453136279296874C64.15782428092956,30.039836279296875,63.057824280929566,28.083536279296876,62.10332428092957,25.826736279296874C61.220724280929566,23.740036279296874,59.943524280929566,21.860836279296876,58.36542428092957,20.282636279296874C55.20902428092957,17.126326279296876,50.848564280929565,15.174076279296875,46.032124280929565,15.174076279296875L46.032124280929565,7.615936279296875C56.049424280929564,7.615936279296875,64.69062428092957,13.507546279296875,68.67962428092957,22.014636279296873C73.31682428092957,30.035936279296877,79.17182428092957,32.829736279296874,85.83592428092956,33.512336279296875C90.89052428092957,34.03003627929688,94.86932428092956,34.53103627929687,94.86932428092956,34.889736279296876C94.86932428092956,35.60703627929688,90.03142428092957,36.34673627929688,82.14772428092957,36.90713627929688C74.06362428092956,37.481736279296875,65.99382428092957,37.66463627929687,57.89282428092957,37.761936279296876Z" fill-rule="evenodd" fill="url(#master_svg1_1_046)" fill-opacity="1"/></g><g transform="matrix(-1,0,0,1,92.06424856185913,0)"><path d="M57.89282428092957,37.761936279296876C58.26922428092956,36.68713627929688,58.314624280929564,36.47333627929687,58.532124280929565,35.694236279296874C62.21312428092956,35.51763627929688,65.84892428092957,35.08313627929687,69.46342428092956,34.360136279296874C72.95172428092957,33.66233627929687,68.59132428092957,33.48803627929688,65.97502428092957,31.453136279296874C64.15782428092956,30.039836279296875,63.057824280929566,28.083536279296876,62.10332428092957,25.826736279296874C61.220724280929566,23.740036279296874,59.943524280929566,21.860836279296876,58.36542428092957,20.282636279296874C55.20902428092957,17.126326279296876,50.848564280929565,15.174076279296875,46.032124280929565,15.174076279296875L46.032124280929565,7.615936279296875C56.049424280929564,7.615936279296875,64.69062428092957,13.507546279296875,68.67962428092957,22.014636279296873C73.31682428092957,30.035936279296877,79.17182428092957,32.829736279296874,85.83592428092956,33.512336279296875C90.89052428092957,34.03003627929688,94.86932428092956,34.53103627929687,94.86932428092956,34.889736279296876C94.86932428092956,35.60703627929688,90.03142428092957,36.34673627929688,82.14772428092957,36.90713627929688C74.06362428092956,37.481736279296875,65.99382428092957,37.66463627929687,57.89282428092957,37.761936279296876Z" fill-rule="evenodd" fill="url(#master_svg2_1_046)" fill-opacity="1"/></g></g><g><path d="M58.82043346061707,32.615986865234376Q58.82043346061707,32.929986865234376,58.80503346061707,33.24358686523438Q58.78963346061707,33.55718686523437,58.75883346061707,33.86968686523437Q58.72803346061707,34.18218686523437,58.68203346061706,34.49278686523438Q58.63593346061707,34.80338686523437,58.574633460617065,35.111286865234376Q58.513433460617065,35.419286865234376,58.43713346061706,35.72388686523438Q58.360833460617066,36.02848686523437,58.269633460617065,36.328886865234374Q58.17853346061706,36.62938686523437,58.072733460617066,36.92508686523438Q57.96693346061707,37.22068686523437,57.84683346061706,37.51078686523438Q57.726633460617066,37.800886865234375,57.59233346061707,38.084686865234374Q57.45813346061706,38.36858686523438,57.31013346061707,38.645486865234375Q57.16213346061707,38.92238686523437,57.00063346061707,39.191686865234374Q56.839233460617066,39.460986865234375,56.66483346061706,39.722086865234374Q56.490333460617066,39.98318686523437,56.30333346061707,40.235386865234375Q56.11623346061707,40.48758686523438,55.91703346061706,40.730286865234376Q55.717833460617065,40.97308686523438,55.507033460617066,41.20568686523438Q55.296133460617064,41.43838686523438,55.07413346061706,41.66038686523437Q54.85213346061707,41.88238686523437,54.61943346061707,42.093286865234376Q54.386733460617066,42.304086865234375,54.14403346061707,42.50328686523437Q53.90133346061707,42.70248686523438,53.649133460617065,42.88958686523438Q53.39693346061706,43.076586865234376,53.135833460617064,43.25108686523437Q52.874733460617065,43.425486865234376,52.605433460617064,43.586886865234376Q52.33613346061706,43.74838686523438,52.059233460617065,43.896386865234376Q51.78233346061707,44.04438686523437,51.498433460617065,44.178686865234376Q51.214633460617065,44.312886865234375,50.92453346061707,44.43308686523437Q50.63443346061706,44.55318686523438,50.33883346061707,44.658986865234375Q50.043133460617064,44.76478686523437,49.742633460617064,44.855886865234375Q49.44223346061706,44.947086865234375,49.13763346061707,45.02338686523437Q48.83303346061707,45.099686865234375,48.52503346061707,45.160886865234374Q48.21713346061706,45.22218686523438,47.90653346061707,45.26828686523437Q47.59593346061706,45.31428686523438,47.28343346061706,45.34508686523438Q46.97093346061706,45.37588686523438,46.65733346061707,45.39128686523438Q46.34373346061707,45.40668686523438,46.02973346061707,45.40668686523438Q45.715733460617066,45.40668686523438,45.402133460617065,45.39128686523438Q45.088533460617064,45.37588686523438,44.776033460617064,45.34508686523438Q44.463533460617064,45.31428686523438,44.152933460617064,45.26828686523437Q43.84233346061707,45.22218686523438,43.534433460617066,45.160886865234374Q43.22642346061706,45.099686865234375,42.92184346061707,45.02338686523437Q42.61726346061707,44.947086865234375,42.31678346061707,44.855886865234375Q42.01631346061706,44.76478686523437,41.720673460617064,44.658986865234375Q41.425033460617065,44.55318686523438,41.134943460617066,44.43308686523437Q40.844843460617064,44.312886865234375,40.561003460617066,44.17858686523438Q40.277153460617065,44.04438686523437,40.00023346061707,43.896386865234376Q39.72332346061707,43.74838686523438,39.45399346061706,43.586886865234376Q39.18467346061706,43.425486865234376,38.923603460617066,43.25108686523437Q38.66252346061707,43.076586865234376,38.410323460617064,42.88958686523438Q38.15812346061706,42.70248686523438,37.91539346061707,42.50328686523437Q37.67267346061706,42.304086865234375,37.44002346061706,42.093286865234376Q37.20737346061706,41.88238686523437,36.98534346061707,41.66038686523437Q36.76331346061706,41.43838686523438,36.552453460617066,41.20568686523438Q36.341583460617066,40.972986865234375,36.14238346061707,40.730286865234376Q35.94319346061707,40.48758686523438,35.75614346061707,40.235386865234375Q35.569103460617065,39.98318686523437,35.394653460617064,39.722086865234374Q35.220203460617064,39.460986865234375,35.058783460617065,39.191686865234374Q34.89735346061707,38.92238686523437,34.74934346061706,38.645486865234375Q34.60132346061707,38.36858686523438,34.467073460617065,38.084686865234374Q34.332823460617064,37.800886865234375,34.21266746061706,37.51078686523438Q34.09250646061707,37.22068686523437,33.986725460617066,36.92508686523438Q33.880944460617066,36.62938686523437,33.78979646061707,36.328886865234374Q33.698648460617065,36.02848686523437,33.62235446061707,35.72388686523438Q33.54606046061706,35.419286865234376,33.484803460617066,35.111286865234376Q33.42354546061706,34.80338686523437,33.37747346061707,34.49278686523438Q33.33140096061707,34.18218686523437,33.30062416061706,33.86968686523437Q33.269847360617064,33.55718686523437,33.25444046061707,33.24358686523438Q33.239033460617065,32.929986865234376,33.239033460617065,32.615986865234376Q33.239033460617065,32.301986865234376,33.25444046061707,31.988386865234375Q33.269847360617064,31.674786865234374,33.30062416061706,31.362286865234374Q33.33140096061707,31.049786865234374,33.37747346061707,30.739186865234373Q33.42354546061706,30.428586865234376,33.484803460617066,30.120686865234376Q33.54606046061706,29.812686865234376,33.62235446061707,29.508096865234375Q33.698648460617065,29.203516865234377,33.78979646061707,28.903036865234377Q33.880944460617066,28.602566865234373,33.986725460617066,28.306926865234374Q34.09250646061707,28.011286865234375,34.21266746061706,27.721196865234376Q34.332823460617064,27.431106865234376,34.467073460617065,27.147256865234375Q34.60132346061707,26.863406865234374,34.74934346061706,26.586486865234374Q34.89735346061707,26.309576865234376,35.058783460617065,26.040246865234373Q35.22021346061707,25.770926865234376,35.394653460617064,25.509856865234376Q35.569103460617065,25.248776865234376,35.75614346061707,24.996576865234374Q35.94319346061707,24.744376865234376,36.14238346061707,24.501646865234374Q36.341583460617066,24.258926865234375,36.552453460617066,24.026276865234376Q36.76331346061706,23.793626865234376,36.98534346061707,23.571596865234376Q37.20737346061706,23.349566865234376,37.44002346061706,23.138706865234376Q37.67267346061706,22.927836865234376,37.91539346061707,22.728636865234375Q38.15812346061706,22.529446865234377,38.410323460617064,22.342396865234374Q38.66252346061707,22.155356865234374,38.923603460617066,21.980906865234374Q39.18467346061706,21.806466865234373,39.45399346061706,21.645036865234374Q39.72332346061707,21.483616865234374,40.00023346061707,21.335596865234375Q40.277153460617065,21.187576865234377,40.561003460617066,21.053326865234375Q40.844843460617064,20.919076865234373,41.134943460617066,20.798920865234376Q41.425033460617065,20.678759865234376,41.720673460617064,20.572978865234376Q42.01631346061706,20.467197865234375,42.31678346061707,20.376049865234375Q42.61726346061707,20.284901865234374,42.92184346061707,20.208607865234374Q43.22642346061706,20.132313865234376,43.534433460617066,20.071056865234375Q43.84233346061707,20.009798865234377,44.152933460617064,19.963726865234374Q44.463533460617064,19.917654365234377,44.776033460617064,19.886877565234375Q45.088533460617064,19.856100765234373,45.402133460617065,19.840693865234375Q45.715733460617066,19.825286865234375,46.02973346061707,19.825286865234375Q46.34373346061707,19.825286865234375,46.65733346061707,19.840693865234375Q46.97093346061706,19.856100765234373,47.28343346061706,19.886877565234375Q47.59593346061706,19.917654365234377,47.90653346061707,19.963726865234374Q48.21713346061706,20.009798865234377,48.52503346061707,20.071056865234375Q48.83303346061707,20.132313865234376,49.13763346061707,20.208607865234374Q49.44223346061706,20.284901865234374,49.742633460617064,20.376049865234375Q50.043133460617064,20.467197865234375,50.338733460617064,20.572978865234376Q50.63443346061706,20.678759865234376,50.92453346061707,20.798920865234376Q51.214633460617065,20.919076865234373,51.498433460617065,21.053326865234375Q51.78233346061707,21.187576865234377,52.059233460617065,21.335596865234375Q52.33613346061706,21.483616865234374,52.605433460617064,21.645036865234374Q52.874733460617065,21.806466865234373,53.135833460617064,21.980906865234374Q53.39693346061706,22.155356865234374,53.649133460617065,22.342396865234374Q53.90133346061707,22.529446865234377,54.14403346061707,22.728636865234375Q54.386733460617066,22.927836865234376,54.61943346061707,23.138706865234376Q54.85213346061707,23.349566865234376,55.07413346061706,23.571596865234376Q55.296133460617064,23.793626865234376,55.507033460617066,24.026276865234376Q55.717833460617065,24.258926865234375,55.91703346061706,24.501646865234374Q56.11623346061707,24.744376865234376,56.30333346061707,24.996576865234374Q56.490333460617066,25.248776865234376,56.66483346061706,25.509856865234376Q56.839233460617066,25.770926865234376,57.00063346061707,26.040246865234373Q57.16213346061707,26.309576865234376,57.31013346061707,26.586486865234374Q57.45813346061706,26.863406865234374,57.59233346061707,27.147256865234375Q57.726633460617066,27.431106865234376,57.84683346061706,27.721196865234376Q57.96693346061707,28.011286865234375,58.072733460617066,28.306926865234374Q58.17853346061706,28.602566865234373,58.269633460617065,28.903036865234377Q58.360833460617066,29.203516865234377,58.43713346061706,29.508096865234375Q58.513433460617065,29.812686865234376,58.574633460617065,30.120686865234376Q58.63593346061707,30.428586865234376,58.68193346061707,30.739186865234373Q58.72803346061707,31.049786865234374,58.75883346061707,31.362286865234374Q58.78963346061707,31.674786865234374,58.80503346061707,31.988386865234375Q58.82043346061707,32.301986865234376,58.82043346061707,32.615986865234376ZM50.47863346061706,32.615986865234376Q50.47863346061706,32.506786865234375,50.47333346061707,32.39768686523438Q50.46793346061706,32.28858686523438,50.45723346061706,32.17988686523437Q50.44653346061706,32.071186865234374,50.43053346061707,31.963186865234377Q50.414533460617065,31.855186865234373,50.393133460617065,31.748086865234377Q50.37183346061707,31.640886865234375,50.34533346061707,31.534986865234373Q50.318833460617064,31.429086865234375,50.28713346061707,31.324486865234377Q50.25543346061707,31.219986865234375,50.21863346061707,31.117186865234373Q50.181833460617064,31.014386865234375,50.14003346061706,30.913486865234376Q50.09823346061707,30.812586865234373,50.051533460617065,30.713786865234376Q50.004833460617064,30.615086865234375,49.95333346061707,30.518786865234375Q49.90183346061707,30.422486865234376,49.84573346061707,30.328786865234378Q49.789533460617065,30.235086865234376,49.72883346061707,30.144286865234378Q49.66823346061707,30.053486865234376,49.603133460617066,29.965786865234374Q49.53813346061706,29.877986865234377,49.46883346061706,29.793606865234374Q49.399533460617064,29.709186865234376,49.326133460617065,29.628256865234377Q49.25283346061707,29.547336865234374,49.175633460617064,29.470106865234374Q49.09833346061706,29.392886865234374,49.01743346061706,29.319536865234376Q48.93653346061706,29.246196865234374,48.85213346061707,29.176906865234375Q48.76763346061706,29.107626865234373,48.679933460617065,29.042566865234377Q48.59223346061707,28.977506865234375,48.501433460617065,28.916826865234377Q48.41063346061706,28.856146865234376,48.316933460617065,28.799996865234377Q48.22323346061707,28.743856865234378,48.12693346061707,28.692366865234376Q48.03063346061707,28.640886865234375,47.93193346061707,28.594186865234377Q47.83313346061706,28.547496865234375,47.73223346061707,28.505696865234377Q47.631333460617064,28.463906865234375,47.52853346061707,28.427116865234375Q47.42573346061707,28.390316865234375,47.321233460617066,28.358616865234374Q47.21663346061707,28.326916865234374,47.11073346061707,28.300376865234377Q47.004833460617064,28.273836865234372,46.897633460617065,28.252536865234376Q46.79053346061707,28.231226865234376,46.682533460617066,28.215196865234375Q46.57453346061706,28.199176865234374,46.46583346061706,28.188466865234375Q46.357133460617064,28.177766865234375,46.248033460617066,28.172406865234375Q46.13893346061707,28.167046865234376,46.02973346061707,28.167046865234376Q45.920533460617065,28.167046865234376,45.81143346061707,28.172406865234375Q45.70233346061707,28.177766865234375,45.59363346061706,28.188466865234375Q45.484933460617064,28.199176865234374,45.37693346061707,28.215196865234375Q45.26893346061706,28.231226865234376,45.16183346061707,28.252536865234376Q45.05463346061707,28.273836865234372,44.94873346061706,28.300376865234377Q44.842833460617065,28.326916865234374,44.73823346061707,28.358616865234374Q44.633733460617066,28.390316865234375,44.530933460617064,28.427116865234375Q44.42813346061706,28.463906865234375,44.327233460617066,28.505696865234377Q44.22633346061706,28.547496865234375,44.127533460617066,28.594186865234377Q44.028833460617065,28.640886865234375,43.932533460617066,28.692366865234376Q43.836233460617066,28.743856865234378,43.74253346061707,28.799996865234377Q43.64883346061707,28.856146865234376,43.55803346061707,28.916826865234377Q43.46723346061707,28.977506865234375,43.37953346061707,29.042566865234377Q43.29173346061707,29.107626865234373,43.207353460617064,29.176906865234375Q43.12293346061706,29.246196865234374,43.04200346061707,29.319536865234376Q42.96108346061706,29.392886865234374,42.88385346061706,29.470106865234374Q42.806633460617064,29.547336865234374,42.733283460617066,29.628256865234377Q42.659943460617065,29.709186865234376,42.59065346061706,29.793606865234374Q42.52137346061706,29.877986865234377,42.45631346061707,29.965786865234374Q42.391253460617065,30.053486865234376,42.33057346061707,30.144286865234378Q42.26989346061707,30.235086865234376,42.21374346061707,30.328786865234378Q42.15760346061707,30.422486865234376,42.10611346061707,30.518786865234375Q42.05463346061707,30.615086865234375,42.00793346061707,30.713786865234376Q41.96124346061707,30.812586865234373,41.91944346061707,30.913486865234376Q41.87765346061707,31.014386865234375,41.840863460617065,31.117186865234373Q41.804063460617066,31.219986865234375,41.772363460617065,31.324486865234377Q41.740663460617064,31.429086865234375,41.71412346061707,31.534986865234373Q41.68758346061706,31.640886865234375,41.66627346061706,31.748086865234377Q41.64497346061707,31.855186865234373,41.628943460617066,31.963186865234377Q41.61292346061707,32.071186865234374,41.602213460617065,32.17988686523437Q41.591513460617065,32.28858686523438,41.58615346061707,32.39768686523438Q41.580793460617066,32.506786865234375,41.580793460617066,32.615986865234376Q41.580793460617066,32.72518686523438,41.58615346061707,32.834286865234375Q41.591513460617065,32.94338686523437,41.602213460617065,33.05208686523437Q41.61292346061707,33.16078686523437,41.628943460617066,33.268786865234375Q41.64497346061707,33.37678686523438,41.66627346061706,33.483886865234375Q41.68758346061706,33.591086865234374,41.71412346061707,33.69698686523438Q41.740663460617064,33.80288686523438,41.772363460617065,33.907486865234375Q41.804063460617066,34.01198686523438,41.840863460617065,34.11478686523438Q41.87765346061707,34.217586865234374,41.91944346061707,34.31848686523438Q41.96124346061707,34.41938686523437,42.00793346061707,34.51818686523438Q42.05463346061707,34.61688686523438,42.10611346061707,34.71318686523438Q42.15760346061707,34.809486865234376,42.21374346061707,34.903186865234375Q42.26989346061707,34.99688686523437,42.33057346061707,35.087686865234375Q42.391253460617065,35.178486865234376,42.45631346061707,35.266186865234374Q42.52137346061706,35.35388686523437,42.59065346061706,35.43838686523438Q42.659943460617065,35.52278686523437,42.733283460617066,35.60368686523437Q42.806633460617064,35.68458686523437,42.88385346061706,35.76188686523437Q42.96108346061706,35.83908686523438,43.04200346061707,35.912386865234375Q43.12293346061706,35.985786865234374,43.207353460617064,36.05508686523437Q43.29173346061707,36.12438686523437,43.37953346061707,36.189386865234376Q43.46723346061707,36.25448686523438,43.55803346061707,36.315186865234374Q43.64883346061707,36.375786865234375,43.74253346061707,36.43198686523438Q43.836233460617066,36.48808686523438,43.932533460617066,36.53958686523438Q44.028833460617065,36.591086865234374,44.127533460617066,36.637786865234375Q44.22633346061706,36.684486865234376,44.327233460617066,36.72628686523437Q44.42813346061706,36.76808686523437,44.530933460617064,36.80488686523438Q44.633733460617066,36.84168686523438,44.73823346061707,36.87338686523438Q44.842833460617065,36.905086865234374,44.94873346061706,36.93158686523438Q45.05463346061707,36.95808686523438,45.16183346061707,36.979386865234375Q45.26893346061706,37.000786865234375,45.37693346061707,37.01678686523438Q45.484933460617064,37.03278686523437,45.59363346061706,37.04348686523437Q45.70233346061707,37.05418686523437,45.81143346061707,37.05958686523438Q45.920533460617065,37.06488686523437,46.02973346061707,37.06488686523437Q46.13893346061707,37.06488686523437,46.248033460617066,37.05958686523438Q46.357133460617064,37.05418686523437,46.46583346061706,37.04348686523437Q46.57453346061706,37.03278686523437,46.682533460617066,37.01678686523438Q46.79053346061707,37.000786865234375,46.897633460617065,36.979386865234375Q47.004833460617064,36.95808686523438,47.11073346061707,36.93158686523438Q47.21663346061707,36.905086865234374,47.321233460617066,36.87338686523438Q47.42573346061707,36.84168686523438,47.52853346061707,36.80488686523438Q47.631333460617064,36.76808686523437,47.73223346061707,36.72628686523437Q47.83313346061706,36.684486865234376,47.93193346061707,36.637786865234375Q48.03063346061707,36.591086865234374,48.12693346061707,36.53958686523438Q48.22323346061707,36.48808686523438,48.316933460617065,36.43198686523438Q48.41063346061706,36.375786865234375,48.501433460617065,36.315186865234374Q48.59223346061707,36.25448686523438,48.679933460617065,36.189386865234376Q48.76763346061706,36.12438686523437,48.85213346061707,36.05508686523437Q48.93653346061706,35.985786865234374,49.01743346061706,35.912386865234375Q49.09833346061706,35.83908686523438,49.175633460617064,35.76188686523437Q49.25283346061707,35.68458686523437,49.326133460617065,35.60368686523437Q49.399533460617064,35.52278686523437,49.46883346061706,35.43838686523438Q49.53813346061706,35.35388686523437,49.603133460617066,35.266186865234374Q49.66823346061707,35.178486865234376,49.72883346061707,35.087686865234375Q49.789533460617065,34.99688686523437,49.84573346061707,34.903186865234375Q49.90183346061707,34.809486865234376,49.95333346061707,34.71318686523438Q50.004833460617064,34.61688686523438,50.051533460617065,34.51818686523438Q50.09823346061707,34.41938686523437,50.14003346061706,34.31848686523438Q50.181833460617064,34.217586865234374,50.21863346061707,34.11478686523438Q50.25543346061707,34.01198686523438,50.28713346061707,33.907486865234375Q50.318833460617064,33.80288686523438,50.34533346061707,33.69698686523438Q50.37183346061707,33.591086865234374,50.393133460617065,33.483886865234375Q50.414533460617065,33.37678686523438,50.43053346061707,33.268786865234375Q50.44653346061706,33.16078686523437,50.45723346061706,33.05208686523437Q50.46793346061706,32.94338686523437,50.47333346061707,32.834286865234375Q50.47863346061706,32.72518686523438,50.47863346061706,32.615986865234376Z" fill="#FFFFFF" fill-opacity="1"/></g></g></g></svg>